<mxfile host="app.diagrams.net" modified="2022-11-06T21:37:35.788Z" agent="5.0 (Windows NT 10.0; Win64; x64) AppleWebKit/537.36 (KHTML, like Gecko) Chrome/107.0.0.0 Safari/537.36" etag="HRt_eFVQvQ1FcopCiRWN" version="20.5.2" type="github">
  <diagram id="_8CMu_YN9WWGNI7k_WGE" name="Page-1">
    <mxGraphModel dx="1422" dy="705" grid="1" gridSize="10" guides="1" tooltips="1" connect="1" arrows="1" fold="1" page="1" pageScale="1" pageWidth="827" pageHeight="1169" math="0" shadow="0">
      <root>
        <mxCell id="0" />
        <mxCell id="1" parent="0" />
        <mxCell id="JNoAzjPoXS2oEvG1nXLi-2" value="OS" style="rounded=1;whiteSpace=wrap;html=1;fontSize=21;fontStyle=1" vertex="1" parent="1">
          <mxGeometry x="220" y="470" width="370" height="60" as="geometry" />
        </mxCell>
        <mxCell id="JNoAzjPoXS2oEvG1nXLi-3" value="Python" style="rounded=1;whiteSpace=wrap;html=1;fontSize=21;" vertex="1" parent="1">
          <mxGeometry x="220" y="400" width="370" height="60" as="geometry" />
        </mxCell>
        <mxCell id="JNoAzjPoXS2oEvG1nXLi-4" value="Librairies python" style="rounded=1;whiteSpace=wrap;html=1;fontSize=21;" vertex="1" parent="1">
          <mxGeometry x="220" y="330" width="370" height="60" as="geometry" />
        </mxCell>
        <mxCell id="JNoAzjPoXS2oEvG1nXLi-5" value="Application" style="rounded=1;whiteSpace=wrap;html=1;fontSize=21;" vertex="1" parent="1">
          <mxGeometry x="220" y="260" width="370" height="60" as="geometry" />
        </mxCell>
        <mxCell id="JNoAzjPoXS2oEvG1nXLi-7" value="" style="rounded=1;whiteSpace=wrap;html=1;fontSize=21;fillColor=none;arcSize=4;dashed=1;" vertex="1" parent="1">
          <mxGeometry x="200" y="230" width="410" height="320" as="geometry" />
        </mxCell>
      </root>
    </mxGraphModel>
  </diagram>
</mxfile>
